<?xml version="1.0" encoding="UTF-8" standalone="no"?>
<!-- Created with Inkscape (http://www.inkscape.org/) -->

<svg
   xmlns:dc="http://purl.org/dc/elements/1.1/"
   xmlns:cc="http://creativecommons.org/ns#"
   xmlns:rdf="http://www.w3.org/1999/02/22-rdf-syntax-ns#"
   xmlns:svg="http://www.w3.org/2000/svg"
   xmlns="http://www.w3.org/2000/svg"
   xmlns:sodipodi="http://sodipodi.sourceforge.net/DTD/sodipodi-0.dtd"
   xmlns:inkscape="http://www.inkscape.org/namespaces/inkscape"
   width="573.84827"
   height="894.07324"
   id="svg2"
   version="1.1"
   inkscape:version="0.47 r22583"
   sodipodi:docname="Orange_blue_keygeneration_de.text.svg">
  <sodipodi:namedview
     id="base"
     pagecolor="#ffffff"
     bordercolor="#666666"
     borderopacity="1.0"
     inkscape:pageopacity="0.0"
     inkscape:pageshadow="2"
     inkscape:zoom="0.7"
     inkscape:cx="-220.44661"
     inkscape:cy="367.22873"
     inkscape:document-units="px"
     inkscape:current-layer="g4423"
     showgrid="true"
     inkscape:window-width="1920"
     inkscape:window-height="1005"
     inkscape:window-x="0"
     inkscape:window-y="25"
     inkscape:window-maximized="1">
    <inkscape:grid
       snapvisiblegridlinesonly="true"
       enabled="true"
       visible="true"
       empspacing="5"
       id="grid2816"
       type="xygrid" />
  </sodipodi:namedview>
  <title
     id="title5016">Public key cryptography</title>
  <defs
     id="defs4">
    <marker
       style="overflow:visible"
       id="Arrow2Mend"
       refX="0"
       refY="0"
       orient="auto"
       inkscape:stockid="Arrow2Mend">
      <path
         transform="scale(-0.6,-0.6)"
         d="M 8.7185878,4.0337352 -2.2072895,0.01601326 8.7185884,-4.0017078 c -1.7454984,2.3720609 -1.7354408,5.6174519 -6e-7,8.035443 z"
         style="font-size:12px;fill-rule:evenodd;stroke-width:0.625;stroke-linejoin:round"
         id="path3686" />
    </marker>
    <marker
       style="overflow:visible"
       id="Arrow2Send"
       refX="0"
       refY="0"
       orient="auto"
       inkscape:stockid="Arrow2Send">
      <path
         transform="matrix(-0.3,0,0,-0.3,0.69,0)"
         d="M 8.7185878,4.0337352 -2.2072895,0.01601326 8.7185884,-4.0017078 c -1.7454984,2.3720609 -1.7354408,5.6174519 -6e-7,8.035443 z"
         style="font-size:12px;fill-rule:evenodd;stroke-width:0.625;stroke-linejoin:round"
         id="path3692" />
    </marker>
    <marker
       style="overflow:visible"
       id="Arrow1Send"
       refX="0"
       refY="0"
       orient="auto"
       inkscape:stockid="Arrow1Send">
      <path
         transform="matrix(-0.2,0,0,-0.2,-1.2,0)"
         style="fill-rule:evenodd;stroke:#000000;stroke-width:1pt;marker-start:none"
         d="M 0,0 5,-5 -12.5,0 5,5 0,0 z"
         id="path3674" />
    </marker>
    <inkscape:perspective
       id="perspective10"
       inkscape:persp3d-origin="372.04724 : 350.78739 : 1"
       inkscape:vp_z="744.09448 : 526.18109 : 1"
       inkscape:vp_y="0 : 1000 : 0"
       inkscape:vp_x="0 : 526.18109 : 1"
       sodipodi:type="inkscape:persp3d" />
    <inkscape:perspective
       sodipodi:type="inkscape:persp3d"
       inkscape:vp_x="0 : 0.5 : 1"
       inkscape:vp_y="0 : 1000 : 0"
       inkscape:vp_z="1 : 0.5 : 1"
       inkscape:persp3d-origin="0.5 : 0.33333333 : 1"
       id="perspective3629" />
    <marker
       style="overflow:visible"
       id="Arrow2Mendt"
       refX="0"
       refY="0"
       orient="auto"
       inkscape:stockid="Arrow2Mendt">
      <path
         transform="scale(-0.6,-0.6)"
         d="M 8.7185878,4.0337352 -2.2072895,0.01601326 8.7185884,-4.0017078 c -1.7454984,2.3720609 -1.7354408,5.6174519 -6e-7,8.035443 z"
         style="font-size:12px;fill:#729fcf;fill-rule:evenodd;stroke:#729fcf;stroke-width:0.625;stroke-linejoin:round"
         id="path4869" />
    </marker>
    <marker
       style="overflow:visible"
       id="Arrow2MendtR"
       refX="0"
       refY="0"
       orient="auto"
       inkscape:stockid="Arrow2MendtR">
      <path
         transform="scale(-0.6,-0.6)"
         d="M 8.7185878,4.0337352 -2.2072895,0.01601326 8.7185884,-4.0017078 c -1.7454984,2.3720609 -1.7354408,5.6174519 -6e-7,8.035443 z"
         style="font-size:12px;fill:#f57900;fill-rule:evenodd;stroke:#f57900;stroke-width:0.625;stroke-linejoin:round"
         id="path4943" />
    </marker>
    <inkscape:perspective
       sodipodi:type="inkscape:persp3d"
       inkscape:vp_x="0 : 0.5 : 1"
       inkscape:vp_y="0 : 1000 : 0"
       inkscape:vp_z="1 : 0.5 : 1"
       inkscape:persp3d-origin="0.5 : 0.33333333 : 1"
       id="perspective3706" />
    <marker
       style="overflow:visible"
       id="Arrow2Mendtc"
       refX="0"
       refY="0"
       orient="auto"
       inkscape:stockid="Arrow2Mendtc">
      <path
         transform="scale(-0.6,-0.6)"
         d="M 8.7185878,4.0337352 -2.2072895,0.01601326 8.7185884,-4.0017078 c -1.7454984,2.3720609 -1.7354408,5.6174519 -6e-7,8.035443 z"
         style="font-size:12px;fill:#f57900;fill-rule:evenodd;stroke:#f57900;stroke-width:0.625;stroke-linejoin:round"
         id="path3722" />
    </marker>
    <inkscape:perspective
       id="perspective3816"
       inkscape:persp3d-origin="0.5 : 0.33333333 : 1"
       inkscape:vp_z="1 : 0.5 : 1"
       inkscape:vp_y="0 : 1000 : 0"
       inkscape:vp_x="0 : 0.5 : 1"
       sodipodi:type="inkscape:persp3d" />
    <inkscape:perspective
       id="perspective3841"
       inkscape:persp3d-origin="0.5 : 0.33333333 : 1"
       inkscape:vp_z="1 : 0.5 : 1"
       inkscape:vp_y="0 : 1000 : 0"
       inkscape:vp_x="0 : 0.5 : 1"
       sodipodi:type="inkscape:persp3d" />
    <inkscape:perspective
       id="perspective3866"
       inkscape:persp3d-origin="0.5 : 0.33333333 : 1"
       inkscape:vp_z="1 : 0.5 : 1"
       inkscape:vp_y="0 : 1000 : 0"
       inkscape:vp_x="0 : 0.5 : 1"
       sodipodi:type="inkscape:persp3d" />
    <marker
       style="overflow:visible"
       id="Arrow2MendtcD"
       refX="0"
       refY="0"
       orient="auto"
       inkscape:stockid="Arrow2MendtcD">
      <path
         transform="scale(-0.6,-0.6)"
         d="M 8.7185878,4.0337352 -2.2072895,0.01601326 8.7185884,-4.0017078 c -1.7454984,2.3720609 -1.7354408,5.6174519 -6e-7,8.035443 z"
         style="font-size:12px;fill:#729fcf;fill-rule:evenodd;stroke:#729fcf;stroke-width:0.625;stroke-linejoin:round"
         id="path3944" />
    </marker>
    <marker
       style="overflow:visible"
       id="Arrow2Mendtn"
       refX="0"
       refY="0"
       orient="auto"
       inkscape:stockid="Arrow2Mendtn">
      <path
         transform="scale(-0.6,-0.6)"
         d="M 8.7185878,4.0337352 -2.2072895,0.01601326 8.7185884,-4.0017078 c -1.7454984,2.3720609 -1.7354408,5.6174519 -6e-7,8.035443 z"
         style="font-size:12px;fill:#f57900;fill-rule:evenodd;stroke:#f57900;stroke-width:0.625;stroke-linejoin:round"
         id="path4043" />
    </marker>
    <marker
       style="overflow:visible"
       id="Arrow2Mendtn2"
       refX="0"
       refY="0"
       orient="auto"
       inkscape:stockid="Arrow2Mendtn2">
      <path
         transform="scale(-0.6,-0.6)"
         d="M 8.7185878,4.0337352 -2.2072895,0.01601326 8.7185884,-4.0017078 c -1.7454984,2.3720609 -1.7354408,5.6174519 -6e-7,8.035443 z"
         style="font-size:12px;fill:#729fcf;fill-rule:evenodd;stroke:#729fcf;stroke-width:0.625;stroke-linejoin:round"
         id="path4214" />
    </marker>
    <marker
       style="overflow:visible"
       id="Arrow2MendtcDX"
       refX="0"
       refY="0"
       orient="auto"
       inkscape:stockid="Arrow2MendtcDX">
      <path
         transform="scale(-0.6,-0.6)"
         d="M 8.7185878,4.0337352 -2.2072895,0.01601326 8.7185884,-4.0017078 c -1.7454984,2.3720609 -1.7354408,5.6174519 -6e-7,8.035443 z"
         style="font-size:12px;fill:#f57900;fill-rule:evenodd;stroke:#f57900;stroke-width:0.625;stroke-linejoin:round"
         id="path4467" />
    </marker>
  </defs>
  <metadata
     id="metadata7">
    <rdf:RDF>
      <cc:Work
         rdf:about="">
        <dc:format>image/svg+xml</dc:format>
        <dc:type
           rdf:resource="http://purl.org/dc/dcmitype/StillImage" />
        <dc:title>Public key cryptography</dc:title>
        <cc:license
           rdf:resource="http://creativecommons.org/licenses/publicdomain/" />
      </cc:Work>
      <cc:License
         rdf:about="http://creativecommons.org/licenses/publicdomain/">
        <cc:permits
           rdf:resource="http://creativecommons.org/ns#Reproduction" />
        <cc:permits
           rdf:resource="http://creativecommons.org/ns#Distribution" />
        <cc:permits
           rdf:resource="http://creativecommons.org/ns#DerivativeWorks" />
      </cc:License>
    </rdf:RDF>
  </metadata>
  <g
     transform="translate(-148.27081,115.3429)"
     id="layer1"
     inkscape:groupmode="layer"
     inkscape:label="Ebene 1">
    <g
       transform="translate(-0.85973144,-40)"
       id="g4415">
      <path
         style="fill:none;stroke:#729fcf;stroke-width:20;stroke-linecap:round;stroke-linejoin:round;stroke-miterlimit:4;stroke-opacity:1;stroke-dasharray:none;marker-end:url(#Arrow2MendtcD)"
         d="m 411.33511,367.41238 c -59.99999,103.92304 10,-17.32051 -69.99999,121.24355 -10,17.32051 10,-17.32051 -30,51.96152"
         id="path4411"
         sodipodi:nodetypes="ccc" />
      <path
         sodipodi:nodetypes="ccc"
         id="path4413"
         d="m 456.5078,367.41238 c 59.99999,103.92304 -10,-17.32051 69.99999,121.24355 10,17.32051 -10,-17.32051 30,51.96152"
         style="fill:none;stroke:#f57900;stroke-width:20;stroke-linecap:round;stroke-linejoin:round;stroke-miterlimit:4;stroke-opacity:1;stroke-dasharray:none;marker-end:url(#Arrow2MendtcDX)" />
      <g
         id="g3616"
         transform="translate(327.80469,7.8540995)">
        <rect
           ry="24.618708"
           y="325.41772"
           x="-137.48355"
           height="73.856125"
           width="491.46707"
           id="rect3610-5-8"
           style="fill:#555753;fill-opacity:1;stroke:#f57900;stroke-width:7.5;stroke-miterlimit:4;stroke-opacity:1;stroke-dasharray:none" />
        <g
           style="font-size:14px;font-style:normal;font-weight:normal;fill:#eeeeec;fill-opacity:1;stroke:none;font-family:Bitstream Vera Sans"
           id="text3804">
          <path
             d="m -34.480469,379.60495 -7.875,-12.5625 -3.890625,4.00781 0,8.55469 -4.453125,0 0,-35.39063 4.453125,0 0,21.96094 9.609375,-11.67187 5.203125,0 -8.039062,9.53906 9.820312,15.5625 -4.828125,0"
             style="font-size:48px;font-variant:normal;font-stretch:normal;text-align:center;text-anchor:middle;fill:#eeeeec;font-family:Trebuchet MS;-inkscape-font-specification:Trebuchet MS"
             id="path3229" />
          <path
             d="m -5.3710937,367.48776 -18.0937503,0 c -6e-6,2.93751 0.804681,5.19532 2.414063,6.77344 1.421865,1.375 3.249988,2.0625 5.484375,2.0625 2.546858,0 4.671856,-0.74218 6.3749997,-2.22656 l 1.8750001,3.21093 c -0.6875217,0.68751 -1.7422082,1.28126 -3.1640628,1.78125 -1.781267,0.65625 -3.76564,0.98438 -5.953125,0.98438 -3.15626,0 -5.835945,-1.07031 -8.039062,-3.21094 -2.453128,-2.35937 -3.679689,-5.53124 -3.679688,-9.51562 -1e-6,-4.14061 1.25781,-7.46092 3.773438,-9.96094 2.249992,-2.23435 4.914052,-3.35154 7.992187,-3.35156 3.578108,2e-5 6.382793,1.00783 8.4140628,3.02343 1.9687263,1.93753 2.9531003,4.50784 2.953125,7.71094 -2.47e-5,0.98439 -0.1172121,1.89064 -0.3515625,2.71875 m -10.8046873,-9.70312 c -1.984387,2e-5 -3.648448,0.64064 -4.992188,1.92187 -1.281257,1.21877 -2.007819,2.73439 -2.179687,4.54688 l 13.8984372,0 c -2.02e-5,-1.79686 -0.5625192,-3.29686 -1.6875002,-4.5 -1.234392,-1.31248 -2.914078,-1.96873 -5.039062,-1.96875"
             style="font-size:48px;font-variant:normal;font-stretch:normal;text-align:center;text-anchor:middle;fill:#eeeeec;font-family:Trebuchet MS;-inkscape-font-specification:Trebuchet MS"
             id="path3231" />
          <path
             d="m 9.2304688,383.87057 c -0.5781372,1.59375 -1.796886,2.92187 -3.6562501,3.98438 -1.8437572,1.06249 -3.9062551,1.59374 -6.18749995,1.59375 l 0,-3.98438 c 1.85937025,0 3.45311865,-0.4375 4.78124995,-1.3125 1.328116,-0.85937 1.9921779,-1.91406 1.9921875,-3.16406 -9.6e-6,-1.375 -0.2421969,-2.72656 -0.7265625,-4.05469 -0.4843834,-1.34374 -1.1093828,-2.99999 -1.8749999,-4.96875 l -6.7968751,-17.46093 4.546875,0 7.3828126,19.40625 6.6328127,-19.40625 4.546875,0 -10.6406252,29.36718"
             style="font-size:48px;font-variant:normal;font-stretch:normal;text-align:center;text-anchor:middle;fill:#eeeeec;font-family:Trebuchet MS;-inkscape-font-specification:Trebuchet MS"
             id="path3233" />
          <path
             d="m 36.886719,386.47214 2.414062,-3.5625 c 2.593743,1.73437 4.984366,2.60155 7.171875,2.60156 2.015611,-10e-6 3.601547,-0.35157 4.757813,-1.05469 1.171857,-0.6875 1.757794,-1.54688 1.757812,-2.57812 -1.8e-5,-2.03125 -1.468767,-3.04688 -4.40625,-3.04688 -0.500013,0 -1.406262,0.125 -2.71875,0.375 -1.31251,0.25 -2.335946,0.375 -3.070312,0.375 -3.562505,0 -5.343753,-1.34375 -5.34375,-4.03125 -3e-6,-0.82812 0.414059,-1.57812 1.242187,-2.25 0.843745,-0.67187 1.882807,-1.15624 3.117188,-1.45312 -3.531254,-1.65624 -5.296877,-4.53124 -5.296875,-8.625 -2e-6,-2.62498 0.914059,-4.81248 2.742187,-6.5625 1.828119,-1.74998 4.085929,-2.62498 6.773438,-2.625 2.468736,2e-5 4.398421,0.50784 5.789062,1.52343 l 2.226563,-2.67187 2.90625,2.74219 -2.671875,2.01562 c 1.140604,1.4844 1.710916,3.4219 1.710937,5.8125 -2.1e-5,2.53127 -0.789083,4.65626 -2.367187,6.375 -1.578143,1.71876 -3.648453,2.70313 -6.210938,2.95313 l -3.679687,0.375 c -0.437509,0.0469 -1.023446,0.21875 -1.757813,0.51562 -0.734381,0.28126 -1.101568,0.65626 -1.101562,1.125 -6e-6,0.64063 0.765618,0.96094 2.296875,0.96094 0.671866,0 1.718739,-0.11718 3.140625,-0.35156 1.421862,-0.25 2.476548,-0.375 3.164062,-0.375 2.468733,0 4.390606,0.59375 5.765625,1.78125 1.390603,1.17187 2.085915,2.80468 2.085938,4.89843 -2.3e-5,2.3125 -1.039084,4.17969 -3.117188,5.60157 -2.062517,1.42186 -4.679702,2.1328 -7.851562,2.13281 -1.62501,-10e-6 -3.335946,-0.28907 -5.132813,-0.86719 -1.79688,-0.57813 -3.242191,-1.28126 -4.335937,-2.10937 m 9.445312,-28.85157 c -1.546885,3e-5 -2.812509,0.5469 -3.796875,1.64063 -0.968757,1.09377 -1.453131,2.42189 -1.453125,3.98437 -6e-6,1.75002 0.468743,3.20314 1.40625,4.35938 0.953116,1.14064 2.234365,1.71095 3.84375,1.71094 1.578112,10e-6 2.812486,-0.55468 3.703125,-1.66407 0.890609,-1.12498 1.335921,-2.59373 1.335938,-4.40625 -1.7e-5,-1.56248 -0.484392,-2.8906 -1.453125,-3.98437 -0.95314,-1.09373 -2.148451,-1.6406 -3.585938,-1.64063"
             style="font-size:48px;font-variant:normal;font-stretch:normal;text-align:center;text-anchor:middle;fill:#eeeeec;font-family:Trebuchet MS;-inkscape-font-specification:Trebuchet MS"
             id="path3235" />
          <path
             d="m 83.035156,367.48776 -18.09375,0 c -6e-6,2.93751 0.804681,5.19532 2.414063,6.77344 1.421865,1.375 3.249988,2.0625 5.484375,2.0625 2.546858,0 4.671856,-0.74218 6.375,-2.22656 l 1.875,3.21093 c -0.687522,0.68751 -1.742208,1.28126 -3.164063,1.78125 -1.781267,0.65625 -3.76564,0.98438 -5.953125,0.98438 -3.15626,0 -5.835945,-1.07031 -8.039062,-3.21094 -2.453128,-2.35937 -3.679689,-5.53124 -3.679688,-9.51562 -10e-7,-4.14061 1.25781,-7.46092 3.773438,-9.96094 2.249992,-2.23435 4.914052,-3.35154 7.992187,-3.35156 3.578108,2e-5 6.382793,1.00783 8.414063,3.02343 1.968726,1.93753 2.9531,4.50784 2.953125,7.71094 -2.5e-5,0.98439 -0.117212,1.89064 -0.351563,2.71875 m -10.804687,-9.70312 c -1.984387,2e-5 -3.648448,0.64064 -4.992188,1.92187 -1.281257,1.21877 -2.007819,2.73439 -2.179687,4.54688 l 13.898437,0 c -2e-5,-1.79686 -0.562519,-3.29686 -1.6875,-4.5 -1.234392,-1.31248 -2.914078,-1.96873 -5.039062,-1.96875"
             style="font-size:48px;font-variant:normal;font-stretch:normal;text-align:center;text-anchor:middle;fill:#eeeeec;font-family:Trebuchet MS;-inkscape-font-specification:Trebuchet MS"
             id="path3237" />
          <path
             d="m 103.49609,379.60495 0,-14.60156 c -10e-6,-2.67186 -0.40626,-4.53905 -1.21875,-5.60157 -0.79689,-1.0781 -2.14064,-1.61716 -4.031246,-1.61718 -1.015638,2e-5 -2.078137,0.30471 -3.1875,0.91406 -1.109384,0.6094 -1.960946,1.35939 -2.554688,2.25 l 0,18.65625 -4.453125,0 0,-25.10156 3.046875,0 1.40625,3.23437 c 1.468741,-2.46872 3.867176,-3.7031 7.195313,-3.70312 5.499981,2e-5 8.249981,3.34377 8.250001,10.03125 l 0,15.53906 -4.45313,0"
             style="font-size:48px;font-variant:normal;font-stretch:normal;text-align:center;text-anchor:middle;fill:#eeeeec;font-family:Trebuchet MS;-inkscape-font-specification:Trebuchet MS"
             id="path3239" />
          <path
             d="m 135.44141,367.48776 -18.09375,0 c -1e-5,2.93751 0.80468,5.19532 2.41406,6.77344 1.42186,1.375 3.24999,2.0625 5.48437,2.0625 2.54686,0 4.67186,-0.74218 6.375,-2.22656 l 1.875,3.21093 c -0.68752,0.68751 -1.7422,1.28126 -3.16406,1.78125 -1.78127,0.65625 -3.76564,0.98438 -5.95312,0.98438 -3.15626,0 -5.83595,-1.07031 -8.03907,-3.21094 -2.45312,-2.35937 -3.67969,-5.53124 -3.67968,-9.51562 -1e-5,-4.14061 1.25781,-7.46092 3.77343,-9.96094 2.25,-2.23435 4.91406,-3.35154 7.99219,-3.35156 3.57811,2e-5 6.38279,1.00783 8.41406,3.02343 1.96873,1.93753 2.9531,4.50784 2.95313,7.71094 -3e-5,0.98439 -0.11721,1.89064 -0.35156,2.71875 m -10.80469,-9.70312 c -1.98439,2e-5 -3.64845,0.64064 -4.99219,1.92187 -1.28126,1.21877 -2.00782,2.73439 -2.17969,4.54688 l 13.89844,0 c -2e-5,-1.79686 -0.56252,-3.29686 -1.6875,-4.5 -1.23439,-1.31248 -2.91408,-1.96873 -5.03906,-1.96875"
             style="font-size:48px;font-variant:normal;font-stretch:normal;text-align:center;text-anchor:middle;fill:#eeeeec;font-family:Trebuchet MS;-inkscape-font-specification:Trebuchet MS"
             id="path3241" />
          <path
             d="m 154.09766,358.79245 c -0.96877,-0.67185 -1.94533,-1.00779 -2.92969,-1.00781 -1.57814,2e-5 -2.96095,0.72658 -4.14844,2.17968 -1.17188,1.45315 -1.75782,3.20315 -1.75781,5.25 l 0,14.39063 -4.45313,0 0,-25.10156 4.45313,0 0,4.00781 c 1.62499,-2.98435 4.03905,-4.47654 7.24219,-4.47656 0.79686,2e-5 1.94529,0.14065 3.44531,0.42187 l -1.85156,4.33594"
             style="font-size:48px;font-variant:normal;font-stretch:normal;text-align:center;text-anchor:middle;fill:#eeeeec;font-family:Trebuchet MS;-inkscape-font-specification:Trebuchet MS"
             id="path3243" />
          <path
             d="m 173.29297,376.72214 c -1.78127,2.23437 -4.50783,3.35156 -8.17969,3.35156 -1.96876,0 -3.67969,-0.71094 -5.13281,-2.13281 -1.4375,-1.4375 -2.15625,-3.21875 -2.15625,-5.34375 0,-2.54687 1.10937,-4.6953 3.32812,-6.44532 2.23437,-1.7656 5.07812,-2.64842 8.53125,-2.64843 0.93749,10e-6 1.99999,0.20314 3.1875,0.60937 -1e-5,-4.06248 -1.81251,-6.09373 -5.4375,-6.09375 -2.78125,2e-5 -4.92188,0.75002 -6.42187,2.25 l -1.875,-3.72656 c 0.84374,-0.68748 2.00781,-1.27341 3.49219,-1.75781 1.49999,-0.49998 2.92967,-0.74998 4.28906,-0.75 3.64061,2e-5 6.28123,0.82815 7.92187,2.48437 1.65623,1.65627 2.48436,4.28908 2.48438,7.89844 l 0,9 c -2e-5,2.20313 0.65623,3.67188 1.96875,4.40625 l 0,2.22656 c -1.81252,0 -3.1719,-0.25781 -4.07813,-0.77344 -0.89064,-0.51562 -1.53126,-1.36718 -1.92187,-2.55468 m -0.42188,-9.44532 c -1.40626,-0.31248 -2.39064,-0.46873 -2.95312,-0.46875 -2.25001,2e-5 -4.08595,0.57814 -5.50781,1.73438 -1.42189,1.15626 -2.13282,2.52345 -2.13282,4.10156 0,2.60938 1.53906,3.91407 4.61719,3.91406 2.24999,1e-5 4.24217,-1.0703 5.97656,-3.21093 l 0,-6.07032"
             style="font-size:48px;font-variant:normal;font-stretch:normal;text-align:center;text-anchor:middle;fill:#eeeeec;font-family:Trebuchet MS;-inkscape-font-specification:Trebuchet MS"
             id="path3245" />
          <path
             d="m 185.92578,358.01901 -2.90625,0 0,-3.51562 2.90625,0 0,-5.25 4.45313,-1.71094 0,6.96094 6.89062,0 0,3.51562 -6.89062,0 0,12.46875 c -1e-5,2.10938 0.35155,3.60938 1.05468,4.5 0.71874,0.89063 1.86718,1.33594 3.44532,1.33594 1.14061,0 2.32029,-0.28906 3.53906,-0.86719 l 0.65625,3.91406 c -1.84377,0.46875 -3.8672,0.70313 -6.07031,0.70313 -1.98439,0 -3.66407,-0.73437 -5.03907,-2.20313 -1.35938,-1.48437 -2.03906,-3.35155 -2.03906,-5.60156 l 0,-14.25"
             style="font-size:48px;font-variant:normal;font-stretch:normal;text-align:center;text-anchor:middle;fill:#eeeeec;font-family:Trebuchet MS;-inkscape-font-specification:Trebuchet MS"
             id="path3247" />
          <path
             d="m 207.95703,345.0112 c 0.76562,3e-5 1.41405,0.27347 1.94531,0.82031 0.54687,0.53129 0.82031,1.17191 0.82032,1.92188 -1e-5,0.76565 -0.27345,1.4219 -0.82032,1.96875 -0.53126,0.53128 -1.17969,0.7969 -1.94531,0.79687 -0.75001,3e-5 -1.39844,-0.26559 -1.94531,-0.79687 -0.53126,-0.54685 -0.79688,-1.2031 -0.79688,-1.96875 0,-0.76559 0.26562,-1.41403 0.79688,-1.94532 0.53124,-0.53121 1.17968,-0.79684 1.94531,-0.79687 m -2.4375,34.59375 0,-21.35156 -3.44531,0 0,-3.75 7.89844,0 0,25.10156 -4.45313,0"
             style="font-size:48px;font-variant:normal;font-stretch:normal;text-align:center;text-anchor:middle;fill:#eeeeec;font-family:Trebuchet MS;-inkscape-font-specification:Trebuchet MS"
             id="path3249" />
          <path
             d="m 215.41016,366.99557 c -1e-5,-3.87498 1.03906,-6.99998 3.11718,-9.375 2.09375,-2.3906 4.84374,-3.58591 8.25,-3.58593 3.59374,2e-5 6.3828,1.14846 8.36719,3.44531 1.98435,2.28127 2.97654,5.45314 2.97656,9.51562 -2e-5,4.04689 -1.01564,7.2422 -3.04687,9.58594 -2.03127,2.32813 -4.79689,3.49219 -8.29688,3.49219 -3.57813,0 -6.36719,-1.17969 -8.36718,-3.53906 -2.00001,-2.35937 -3.00001,-5.53906 -3,-9.53907 m 4.6875,0 c -1e-5,6.29689 2.22655,9.44532 6.67968,9.44532 2.07811,0 3.70311,-0.84375 4.875,-2.53125 1.18748,-1.6875 1.78123,-3.99218 1.78125,-6.91407 -2e-5,-6.21873 -2.21876,-9.3281 -6.65625,-9.32812 -2.03126,2e-5 -3.65626,0.82815 -4.875,2.48437 -1.20313,1.65627 -1.80469,3.93752 -1.80468,6.84375"
             style="font-size:48px;font-variant:normal;font-stretch:normal;text-align:center;text-anchor:middle;fill:#eeeeec;font-family:Trebuchet MS;-inkscape-font-specification:Trebuchet MS"
             id="path3251" />
          <path
             d="m 258.27734,379.60495 0,-14.60156 c -10e-6,-2.67186 -0.40626,-4.53905 -1.21875,-5.60157 -0.79689,-1.0781 -2.14064,-1.61716 -4.03125,-1.61718 -1.01563,2e-5 -2.07813,0.30471 -3.1875,0.91406 -1.10938,0.6094 -1.96094,1.35939 -2.55468,2.25 l 0,18.65625 -4.45313,0 0,-25.10156 3.04688,0 1.40625,3.23437 c 1.46874,-2.46872 3.86717,-3.7031 7.19531,-3.70312 5.49998,2e-5 8.24998,3.34377 8.25,10.03125 l 0,15.53906 -4.45313,0"
             style="font-size:48px;font-variant:normal;font-stretch:normal;text-align:center;text-anchor:middle;fill:#eeeeec;font-family:Trebuchet MS;-inkscape-font-specification:Trebuchet MS"
             id="path3253" />
        </g>
      </g>
    </g>
    <g
       id="g5000"
       transform="matrix(1.2364568,0,0,1.2364568,-1200.392,-278.1104)">
      <path
         transform="matrix(1.1845756,0,0,1.1845756,809.48274,-157.98707)"
         d="m 400,772.36218 c 0,44.18278 -35.81722,80 -80,80 -44.18278,0 -80,-35.81722 -80,-80 0,-44.18278 35.81722,-80 80,-80 44.18278,0 80,35.81722 80,80 z"
         sodipodi:ry="80"
         sodipodi:rx="80"
         sodipodi:cy="772.36218"
         sodipodi:cx="320"
         id="path5002"
         style="fill:#555753;fill-opacity:1;stroke:#729fcf;stroke-width:5.12058449;stroke-linecap:round;stroke-linejoin:round;stroke-miterlimit:4;stroke-opacity:1;stroke-dasharray:none"
         sodipodi:type="arc" />
      <path
         sodipodi:nodetypes="cssccccccccccccsssc"
         id="path5004"
         d="m 1161.2107,695.22105 c -11.8411,0 -21.4402,9.59909 -21.4402,21.44019 0,11.84111 9.5991,21.44022 21.4402,21.44022 9.0525,0 16.7938,-5.61197 19.9382,-13.54529 l 1.502,-0.74819 8.3974,7.14674 7.1467,-10.72011 10.5415,10.72011 3.5733,-10.72011 14.2935,10.72011 10.7201,-10.72011 -10.7201,-14.29347 -46.8223,0 c -3.7067,-6.40987 -10.6334,-10.72009 -18.5703,-10.72009 z m -3.5734,10.72009 c 3.947,0 7.1467,3.1997 7.1467,7.14673 0,3.94704 -3.1997,7.14674 -7.1467,7.14674 -3.947,0 -7.1467,-3.1997 -7.1467,-7.14674 0,-3.94703 3.1997,-7.14673 7.1467,-7.14673 z"
         style="fill:none;stroke:#eeeeec;stroke-width:4.99977031;stroke-miterlimit:4;stroke-dasharray:none" />
      <g
         style="font-size:11.32267666px;font-style:normal;font-weight:normal;fill:#eeeeec;fill-opacity:1;stroke:none;font-family:Bitstream Vera Sans"
         id="text3804-6">
        <path
           d="m 1146.812,776.50443 0,6.80971 -2.7012,0 0,-21.19684 2.7012,0 0,1.25105 c 1.0236,-1.02357 2.2604,-1.53537 3.7105,-1.53538 2.1609,10e-6 3.8432,0.67293 5.0469,2.01874 1.2036,1.34585 1.8054,3.3172 1.8055,5.91408 -10e-5,2.31256 -0.6066,4.20336 -1.8198,5.6724 -1.2131,1.45956 -2.9665,2.18934 -5.2601,2.18934 -0.6445,0 -1.3363,-0.11373 -2.0756,-0.3412 -0.7298,-0.22746 -1.1989,-0.4881 -1.4074,-0.7819 m 0,-11.10311 0,8.87111 c 0.1706,0.2559 0.5307,0.50232 1.0804,0.73926 0.5497,0.22747 1.0852,0.3412 1.6065,0.3412 3.3551,0 5.0326,-1.89554 5.0327,-5.68662 -10e-5,-1.92396 -0.3981,-3.33139 -1.1942,-4.22231 -0.7962,-0.89088 -2.0709,-1.33634 -3.8243,-1.33635 -0.3791,10e-6 -0.8435,0.1327 -1.3932,0.39806 -0.5497,0.26539 -0.9857,0.56394 -1.3079,0.89565"
           style="font-size:29.11545372px;font-variant:normal;font-stretch:normal;text-align:center;text-anchor:middle;fill:#eeeeec;font-family:Trebuchet MS;-inkscape-font-specification:Trebuchet MS"
           id="path3260" />
        <path
           d="m 1168.5917,764.71892 c -0.5876,-0.40753 -1.18,-0.6113 -1.7771,-0.61131 -0.9572,10e-6 -1.796,0.44073 -2.5163,1.32214 -0.7108,0.88143 -1.0662,1.94293 -1.0662,3.1845 l 0,8.72895 -2.7012,0 0,-15.2259 2.7012,0 0,2.43102 c 0.9856,-1.81022 2.4499,-2.71534 4.3929,-2.71535 0.4833,10e-6 1.1799,0.0853 2.0898,0.25589 l -1.1231,2.63006"
           style="font-size:29.11545372px;font-variant:normal;font-stretch:normal;text-align:center;text-anchor:middle;fill:#eeeeec;font-family:Trebuchet MS;-inkscape-font-specification:Trebuchet MS"
           id="path3262" />
        <path
           d="m 1174.4205,756.3596 c 0.4644,2e-5 0.8577,0.16588 1.18,0.49758 0.3317,0.32226 0.4975,0.71085 0.4975,1.16576 0,0.46442 -0.1658,0.86248 -0.4975,1.19418 -0.3223,0.32226 -0.7156,0.48338 -1.18,0.48337 -0.455,1e-5 -0.8483,-0.16111 -1.18,-0.48337 -0.3222,-0.3317 -0.4834,-0.72976 -0.4834,-1.19418 0,-0.46439 0.1612,-0.85771 0.4834,-1.17998 0.3222,-0.32222 0.7156,-0.48334 1.18,-0.48336 m -1.4785,20.9836 0,-12.95126 -2.0899,0 0,-2.27464 4.791,0 0,15.2259 -2.7011,0"
           style="font-size:29.11545372px;font-variant:normal;font-stretch:normal;text-align:center;text-anchor:middle;fill:#eeeeec;font-family:Trebuchet MS;-inkscape-font-specification:Trebuchet MS"
           id="path3264" />
        <path
           d="m 1185.4241,777.62753 -0.7109,0 -6.5253,-15.55288 2.957,0 4.0233,10.66239 4.1086,-10.66239 2.829,0 -6.6817,15.55288"
           style="font-size:29.11545372px;font-variant:normal;font-stretch:normal;text-align:center;text-anchor:middle;fill:#eeeeec;font-family:Trebuchet MS;-inkscape-font-specification:Trebuchet MS"
           id="path3266" />
        <path
           d="m 1202.8109,775.59457 c -1.0805,1.35531 -2.7343,2.03296 -4.9616,2.03296 -1.1942,0 -2.232,-0.43123 -3.1134,-1.2937 -0.8719,-0.87195 -1.3079,-1.9524 -1.3079,-3.24137 0,-1.54486 0.6729,-2.84804 2.0187,-3.90955 1.3553,-1.07097 3.0803,-1.60646 5.1748,-1.60647 0.5687,10e-6 1.2132,0.12322 1.9335,0.36963 0,-2.46418 -1.0994,-3.69628 -3.2982,-3.69629 -1.6871,10e-6 -2.9855,0.45494 -3.8954,1.36478 l -1.1373,-2.26042 c 0.5118,-0.41701 1.2179,-0.77242 2.1183,-1.06624 0.9098,-0.30328 1.777,-0.45492 2.6016,-0.45493 2.2083,10e-6 3.81,0.50233 4.8052,1.50695 1.0046,1.00465 1.5069,2.60163 1.5069,4.79097 l 0,5.45915 c 0,1.33635 0.3981,2.22725 1.1942,2.6727 l 0,1.35057 c -1.0994,0 -1.924,-0.15638 -2.4737,-0.46914 -0.5402,-0.31276 -0.9288,-0.8293 -1.1657,-1.5496 m -0.2559,-5.72926 c -0.853,-0.18955 -1.4501,-0.28433 -1.7913,-0.28433 -1.3648,0 -2.4784,0.35068 -3.3409,1.05202 -0.8624,0.70135 -1.2937,1.53065 -1.2937,2.48789 0,1.58278 0.9336,2.37416 2.8007,2.37416 1.3648,0 2.5732,-0.64922 3.6252,-1.94766 l 0,-3.68208"
           style="font-size:29.11545372px;font-variant:normal;font-stretch:normal;text-align:center;text-anchor:middle;fill:#eeeeec;font-family:Trebuchet MS;-inkscape-font-specification:Trebuchet MS"
           id="path3268" />
        <path
           d="m 1210.4736,764.24978 -1.7628,0 0,-2.13248 1.7628,0 0,-3.18451 2.7011,-1.0378 0,4.22231 4.1797,0 0,2.13248 -4.1797,0 0,7.56319 c 0,1.27949 0.2133,2.18935 0.6398,2.72957 0.436,0.54023 1.1326,0.81035 2.0898,0.81035 0.6919,0 1.4074,-0.17534 2.1467,-0.52602 l 0.3981,2.37417 c -1.1184,0.28433 -2.3458,0.42649 -3.6821,0.42649 -1.2037,0 -2.2225,-0.44545 -3.0566,-1.33635 -0.8245,-0.90038 -1.2368,-2.03296 -1.2368,-3.39775 l 0,-8.64365"
           style="font-size:29.11545372px;font-variant:normal;font-stretch:normal;text-align:center;text-anchor:middle;fill:#eeeeec;font-family:Trebuchet MS;-inkscape-font-specification:Trebuchet MS"
           id="path3270" />
        <path
           d="m 1233.874,769.99325 -10.9751,0 c -10e-5,1.78182 0.488,3.15134 1.4643,4.10858 0.8624,0.83404 1.9713,1.25106 3.3266,1.25106 1.5449,0 2.8338,-0.45019 3.8669,-1.35057 l 1.1373,1.94766 c -0.417,0.41702 -1.0567,0.77717 -1.9192,1.08046 -1.0805,0.39806 -2.2841,0.59709 -3.611,0.59709 -1.9145,0 -3.5399,-0.64922 -4.8763,-1.94766 -1.488,-1.43113 -2.232,-3.3551 -2.232,-5.77191 0,-2.51158 0.763,-4.52559 2.2889,-6.04203 1.3648,-1.35529 2.9807,-2.03295 4.8478,-2.03296 2.1704,10e-6 3.8717,0.61132 5.1038,1.83393 1.1942,1.17524 1.7912,2.73432 1.7913,4.67724 -10e-5,0.5971 -0.071,1.14681 -0.2133,1.64911 m -6.5538,-5.88564 c -1.2037,10e-6 -2.2131,0.3886 -3.0281,1.16576 -0.7772,0.73927 -1.2179,1.6586 -1.3222,2.758 l 8.4304,0 c 0,-1.08992 -0.3412,-1.99978 -1.0236,-2.72957 -0.7487,-0.79611 -1.7676,-1.19418 -3.0565,-1.19419"
           style="font-size:29.11545372px;font-variant:normal;font-stretch:normal;text-align:center;text-anchor:middle;fill:#eeeeec;font-family:Trebuchet MS;-inkscape-font-specification:Trebuchet MS"
           id="path3272" />
        <path
           d="m 1177.8893,813.73752 -4.7767,-7.62006 -2.36,2.43102 0,5.18904 -2.7011,0 0,-21.46696 2.7011,0 0,13.32089 5.8288,-7.07984 3.1561,0 -4.8763,5.78613 5.9567,9.43978 -2.9286,0"
           style="font-size:29.11545372px;font-variant:normal;font-stretch:normal;text-align:center;text-anchor:middle;fill:#eeeeec;font-family:Trebuchet MS;-inkscape-font-specification:Trebuchet MS"
           id="path3274" />
        <path
           d="m 1195.5462,806.38757 -10.9751,0 c 0,1.78181 0.4881,3.15134 1.4643,4.10858 0.8624,0.83404 1.9713,1.25106 3.3267,1.25105 1.5448,10e-6 2.8338,-0.45018 3.8668,-1.35057 l 1.1374,1.94767 c -0.4171,0.41702 -1.0568,0.77717 -1.9193,1.08045 -1.0804,0.39807 -2.2841,0.5971 -3.611,0.5971 -1.9145,0 -3.5399,-0.64922 -4.8762,-1.94767 -1.488,-1.43112 -2.232,-3.35509 -2.232,-5.77191 0,-2.51157 0.7629,-4.52558 2.2888,-6.04202 1.3648,-1.3553 2.9808,-2.03295 4.8479,-2.03297 2.1704,2e-5 3.8716,0.61133 5.1037,1.83394 1.1942,1.17524 1.7913,2.73432 1.7913,4.67723 0,0.59711 -0.071,1.14681 -0.2133,1.64912 m -6.5538,-5.88564 c -1.2036,10e-6 -2.213,0.3886 -3.0281,1.16575 -0.7772,0.73927 -1.2179,1.65861 -1.3221,2.75801 l 8.4304,0 c 0,-1.08992 -0.3412,-1.99978 -1.0236,-2.72957 -0.7488,-0.79612 -1.7676,-1.19418 -3.0566,-1.19419"
           style="font-size:29.11545372px;font-variant:normal;font-stretch:normal;text-align:center;text-anchor:middle;fill:#eeeeec;font-family:Trebuchet MS;-inkscape-font-specification:Trebuchet MS"
           id="path3276" />
        <path
           d="m 1204.4031,816.32493 c -0.3506,0.96672 -1.0899,1.77232 -2.2177,2.41681 -1.1184,0.64447 -2.3695,0.96671 -3.7532,0.96672 l 0,-2.41681 c 1.1278,0 2.0946,-0.26538 2.9002,-0.79613 0.8056,-0.52127 1.2084,-1.16101 1.2084,-1.91923 0,-0.83403 -0.1469,-1.65385 -0.4407,-2.45946 -0.2939,-0.81508 -0.673,-1.81971 -1.1374,-3.0139 l -4.1228,-10.59132 2.7581,0 4.4782,11.77129 4.0232,-11.77129 2.758,0 -6.4543,17.81332"
           style="font-size:29.11545372px;font-variant:normal;font-stretch:normal;text-align:center;text-anchor:middle;fill:#eeeeec;font-family:Trebuchet MS;-inkscape-font-specification:Trebuchet MS"
           id="path3278" />
      </g>
    </g>
    <path
       style="fill:none;stroke:#729fcf;stroke-width:20;stroke-linecap:round;stroke-linejoin:round;stroke-miterlimit:4;stroke-opacity:1;stroke-dasharray:none;marker-end:url(#Arrow2MendtcD)"
       d="m 435.00278,-37.244655 c 0,119.999995 0,60 0,219.999995 0,20 0,-20 0,60"
       id="path3701"
       sodipodi:nodetypes="ccc" />
    <g
       transform="matrix(1.2364568,0,0,1.2364568,18.461226,-949.41123)"
       id="g3887">
      <path
         sodipodi:type="arc"
         style="fill:#555753;fill-opacity:1;stroke:#729fcf;stroke-width:5.12058449;stroke-linecap:round;stroke-linejoin:round;stroke-miterlimit:4;stroke-opacity:1;stroke-dasharray:none"
         id="path3889"
         sodipodi:cx="320"
         sodipodi:cy="772.36218"
         sodipodi:rx="80"
         sodipodi:ry="80"
         d="m 400,772.36218 c 0,44.18278 -35.81722,80 -80,80 -44.18278,0 -80,-35.81722 -80,-80 0,-44.18278 35.81722,-80 80,-80 44.18278,0 80,35.81722 80,80 z"
         transform="matrix(1.1845756,0,0,1.1845756,-42.025553,-142.55923)" />
      <g
         style="font-size:11.32267666px;font-style:normal;font-weight:normal;fill:#eeeeec;fill-opacity:1;stroke:none;font-family:Bitstream Vera Sans"
         id="text3893">
        <path
           d="m 298.00479,786.61699 c -0.58763,-0.40752 -1.17998,-0.61129 -1.77707,-0.61131 -0.95725,2e-5 -1.79603,0.44073 -2.51632,1.32214 -0.71084,0.88144 -1.06625,1.94294 -1.06624,3.1845 l 0,8.72895 -2.70114,0 0,-15.2259 2.70114,0 0,2.43102 c 0.98567,-1.81022 2.44997,-2.71534 4.3929,-2.71535 0.48336,10e-6 1.17997,0.0853 2.08983,0.2559 l -1.1231,2.63005"
           style="font-size:29.11545372px;font-variant:normal;font-stretch:normal;text-align:center;text-anchor:middle;fill:#eeeeec;font-family:Trebuchet MS;-inkscape-font-specification:Trebuchet MS"
           id="path3204" />
        <path
           d="m 309.64813,797.49264 c -1.08047,1.35531 -2.73432,2.03296 -4.96157,2.03296 -1.1942,0 -2.232,-0.43123 -3.11342,-1.2937 -0.87195,-0.87195 -1.30793,-1.9524 -1.30792,-3.24137 -10e-6,-1.54486 0.67291,-2.84804 2.01874,-3.90955 1.35531,-1.07097 3.08024,-1.60645 5.17482,-1.60646 0.56865,10e-6 1.21313,0.12322 1.93345,0.36963 -10e-6,-2.46419 -1.09942,-3.69629 -3.29824,-3.6963 -1.68703,1e-5 -2.98547,0.45494 -3.89533,1.36478 l -1.13732,-2.26042 c 0.51179,-0.41701 1.21788,-0.77242 2.11826,-1.06624 0.90986,-0.30327 1.77706,-0.45492 2.60163,-0.45493 2.20829,10e-6 3.81002,0.50233 4.80519,1.50695 1.00462,1.00465 1.50694,2.60164 1.50695,4.79097 l 0,5.45915 c -10e-6,1.33635 0.39805,2.22726 1.19419,2.67271 l 0,1.35057 c -1.09943,0 -1.92399,-0.15639 -2.47368,-0.46915 -0.54024,-0.31276 -0.92882,-0.8293 -1.16575,-1.5496 m -0.2559,-5.72926 c -0.853,-0.18955 -1.4501,-0.28433 -1.79128,-0.28433 -1.3648,0 -2.47843,0.35068 -3.34089,1.05202 -0.86247,0.70135 -1.29371,1.53065 -1.2937,2.48789 -1e-5,1.58278 0.93354,2.37416 2.80065,2.37416 1.36478,0 2.57319,-0.64922 3.62522,-1.94766 l 0,-3.68208"
           style="font-size:29.11545372px;font-variant:normal;font-stretch:normal;text-align:center;text-anchor:middle;fill:#eeeeec;font-family:Trebuchet MS;-inkscape-font-specification:Trebuchet MS"
           id="path3206" />
        <path
           d="m 325.7128,799.24127 0,-8.8569 c -1e-5,-1.62067 -0.24643,-2.75325 -0.73925,-3.39775 -0.48338,-0.65394 -1.29846,-0.98092 -2.44525,-0.98094 -0.61606,2e-5 -1.26054,0.18483 -1.93345,0.55445 -0.67292,0.36964 -1.18945,0.82457 -1.5496,1.36478 l 0,11.31636 -2.70114,0 0,-15.2259 1.84815,0 0.85299,1.96188 c 0.8909,-1.49746 2.34572,-2.2462 4.36448,-2.24621 3.33613,10e-6 5.0042,2.02824 5.00422,6.08467 l 0,9.42556 -2.70115,0"
           style="font-size:29.11545372px;font-variant:normal;font-stretch:normal;text-align:center;text-anchor:middle;fill:#eeeeec;font-family:Trebuchet MS;-inkscape-font-specification:Trebuchet MS"
           id="path3208" />
        <path
           d="m 341.91965,799.22706 0,-1.12311 c -0.9383,0.93829 -2.30309,1.40744 -4.09436,1.40744 -1.90502,0 -3.44988,-0.6824 -4.63459,-2.04718 -1.18471,-1.36479 -1.77707,-3.1845 -1.77707,-5.45915 0,-2.28411 0.6824,-4.23178 2.04718,-5.843 1.36479,-1.62067 2.99021,-2.43101 4.87627,-2.43102 1.57329,10e-6 2.76748,0.36964 3.58257,1.10889 l 0,-7.06562 2.70114,0 0,21.45275 -2.70114,0 m 0,-11.68599 c -0.68241,-1.02358 -1.61596,-1.53537 -2.80066,-1.53539 -1.45009,2e-5 -2.62532,0.54024 -3.5257,1.62069 -0.8909,1.08046 -1.33635,2.45473 -1.33635,4.12279 0,3.66787 1.66807,5.5018 5.00422,5.5018 0.42648,0 0.93828,-0.13269 1.53538,-0.39807 0.59709,-0.27485 0.97145,-0.56391 1.12311,-0.8672 l 0,-8.44462"
           style="font-size:29.11545372px;font-variant:normal;font-stretch:normal;text-align:center;text-anchor:middle;fill:#eeeeec;font-family:Trebuchet MS;-inkscape-font-specification:Trebuchet MS"
           id="path3210" />
        <path
           d="m 347.47831,791.59278 c 0,-2.35046 0.63027,-4.24599 1.8908,-5.68661 1.27001,-1.45007 2.93808,-2.17512 5.00422,-2.17513 2.17986,10e-6 3.87162,0.69662 5.0753,2.08983 1.20365,1.38375 1.80549,3.30772 1.8055,5.77191 -10e-6,2.45472 -0.61606,4.39291 -1.84815,5.81456 -1.23211,1.41218 -2.90966,2.11826 -5.03265,2.11826 -2.1704,0 -3.86216,-0.71556 -5.0753,-2.14669 -1.21315,-1.43113 -1.81972,-3.35984 -1.81972,-5.78613 m 2.84331,0 c -10e-6,3.81951 1.35056,5.72926 4.05171,5.72926 1.26052,0 2.2462,-0.51179 2.95704,-1.53538 0.72029,-1.02359 1.08044,-2.42155 1.08045,-4.19388 -10e-6,-3.77211 -1.34584,-5.65817 -4.03749,-5.65818 -1.23211,10e-6 -2.21778,0.50233 -2.95704,1.50695 -0.72978,1.00465 -1.09468,2.38839 -1.09467,4.15123"
           style="font-size:29.11545372px;font-variant:normal;font-stretch:normal;text-align:center;text-anchor:middle;fill:#eeeeec;font-family:Trebuchet MS;-inkscape-font-specification:Trebuchet MS"
           id="path3212" />
        <path
           d="m 381.74015,799.24127 0,-9.63881 c -2e-5,-2.39784 -1.03782,-3.59676 -3.11342,-3.59678 -0.65397,2e-5 -1.26528,0.20379 -1.83393,0.61131 -0.56867,0.39808 -0.95726,0.85301 -1.16575,1.36479 l 0,11.25949 -2.70114,0 0,-10.81878 c -10e-6,-0.74872 -0.28435,-1.33634 -0.853,-1.76285 -0.55919,-0.43596 -1.30319,-0.65394 -2.23199,-0.65396 -0.54024,2e-5 -1.11837,0.20852 -1.73442,0.62553 -0.60658,0.41703 -1.03781,0.8767 -1.2937,1.379 l 0,11.23106 -2.70114,0 0,-15.2259 1.76285,0 0.89564,1.76285 c 1.04254,-1.36477 2.34572,-2.04717 3.90954,-2.04718 2.17986,10e-6 3.70577,0.67767 4.57773,2.03296 0.30327,-0.57812 0.86719,-1.06148 1.69176,-1.45008 0.82455,-0.38857 1.6728,-0.58287 2.54476,-0.58288 1.57328,10e-6 2.79116,0.46916 3.65365,1.40743 0.86245,0.92883 1.29368,2.23675 1.29371,3.92377 l 0,10.17903 -2.70115,0"
           style="font-size:29.11545372px;font-variant:normal;font-stretch:normal;text-align:center;text-anchor:middle;fill:#eeeeec;font-family:Trebuchet MS;-inkscape-font-specification:Trebuchet MS"
           id="path3214" />
        <path
           d="m 298.67296,835.63559 0,-8.8569 c -10e-6,-1.62067 -0.24643,-2.75326 -0.73925,-3.39775 -0.48338,-0.65395 -1.29846,-0.98093 -2.44525,-0.98094 -0.61606,10e-6 -1.26054,0.18483 -1.93345,0.55444 -0.67292,0.36965 -1.18945,0.82457 -1.5496,1.36479 l 0,11.31636 -2.70114,0 0,-15.2259 1.84815,0 0.85299,1.96188 c 0.8909,-1.49746 2.34572,-2.2462 4.36448,-2.24622 3.33613,2e-5 5.0042,2.02824 5.00422,6.08468 l 0,9.42556 -2.70115,0"
           style="font-size:29.11545372px;font-variant:normal;font-stretch:normal;text-align:center;text-anchor:middle;fill:#eeeeec;font-family:Trebuchet MS;-inkscape-font-specification:Trebuchet MS"
           id="path3216" />
        <path
           d="m 307.78576,820.40969 0,9.70989 c 0,2.35046 1.01885,3.5257 3.05655,3.52569 0.8909,10e-6 1.70598,-0.25589 2.44525,-0.76769 0.73925,-0.51179 1.22735,-1.10414 1.4643,-1.77706 l 0,-10.69083 2.70114,0 0,15.2259 -2.70114,0 0,-2.10405 c -0.3033,0.5971 -0.91461,1.1468 -1.83393,1.64912 -0.90987,0.49284 -1.80077,0.73926 -2.67271,0.73926 -1.66808,0 -2.94756,-0.47862 -3.83846,-1.43587 -0.88143,-0.95724 -1.32214,-2.31729 -1.32214,-4.08014 l 0,-9.99422 2.70114,0"
           style="font-size:29.11545372px;font-variant:normal;font-stretch:normal;text-align:center;text-anchor:middle;fill:#eeeeec;font-family:Trebuchet MS;-inkscape-font-specification:Trebuchet MS"
           id="path3218" />
        <path
           d="m 338.7778,835.63559 0,-9.63881 c -2e-5,-2.39784 -1.03783,-3.59677 -3.11342,-3.59678 -0.65398,10e-6 -1.26529,0.20378 -1.83394,0.61131 -0.56867,0.39808 -0.95726,0.853 -1.16575,1.36479 l 0,11.25949 -2.70114,0 0,-10.81878 c -10e-6,-0.74873 -0.28434,-1.33634 -0.85299,-1.76285 -0.5592,-0.43596 -1.30319,-0.65395 -2.232,-0.65396 -0.54023,10e-6 -1.11837,0.20852 -1.73442,0.62553 -0.60657,0.41703 -1.03781,0.87669 -1.2937,1.379 l 0,11.23106 -2.70114,0 0,-15.2259 1.76285,0 0.89564,1.76285 c 1.04254,-1.36478 2.34572,-2.04717 3.90955,-2.04719 2.17985,2e-5 3.70576,0.67767 4.57772,2.03297 0.30327,-0.57813 0.86719,-1.06149 1.69177,-1.45009 0.82454,-0.38857 1.67279,-0.58286 2.54475,-0.58288 1.57328,2e-5 2.79116,0.46917 3.65365,1.40744 0.86245,0.92883 1.29369,2.23675 1.29371,3.92376 l 0,10.17904 -2.70114,0"
           style="font-size:29.11545372px;font-variant:normal;font-stretch:normal;text-align:center;text-anchor:middle;fill:#eeeeec;font-family:Trebuchet MS;-inkscape-font-specification:Trebuchet MS"
           id="path3220" />
        <path
           d="m 347.62048,834.54092 -0.95251,1.379 -1.35057,0 0,-21.75129 2.70114,0 0,7.36416 c 0.25589,-0.35066 0.73452,-0.6729 1.43587,-0.96672 0.71082,-0.2938 1.40743,-0.4407 2.08983,-0.44072 2.08508,2e-5 3.77211,0.72032 5.06109,2.16092 1.29842,1.44062 1.94765,3.26033 1.94766,5.45914 -1e-5,2.54003 -0.64924,4.53982 -1.94766,5.99938 -1.29846,1.45009 -3.05657,2.17513 -5.27434,2.17513 -0.72031,0 -1.43113,-0.13269 -2.13248,-0.39806 -0.69187,-0.27486 -1.21788,-0.60184 -1.57803,-0.98094 m 0.39806,-10.94673 0,8.78581 c 0,0.15165 0.33646,0.40281 1.00938,0.75348 0.67291,0.3412 1.1847,0.5118 1.53538,0.51179 1.83866,10e-6 3.15606,-0.44071 3.9522,-1.32213 0.79611,-0.88142 1.19417,-2.35994 1.19418,-4.43556 -10e-6,-1.72493 -0.46441,-3.07076 -1.39321,-4.03749 -0.92883,-0.96672 -2.17988,-1.45008 -3.75317,-1.45009 -0.33172,10e-6 -0.79613,0.14218 -1.39322,0.4265 -0.58762,0.28434 -0.97147,0.54024 -1.15154,0.76769"
           style="font-size:29.11545372px;font-variant:normal;font-stretch:normal;text-align:center;text-anchor:middle;fill:#eeeeec;font-family:Trebuchet MS;-inkscape-font-specification:Trebuchet MS"
           id="path3222" />
        <path
           d="m 374.34755,828.28564 -10.97516,0 c 0,1.78181 0.4881,3.15134 1.4643,4.10858 0.86247,0.83404 1.97136,1.25106 3.32667,1.25105 1.54485,10e-6 2.83382,-0.45018 3.8669,-1.35057 l 1.13732,1.94767 c -0.41703,0.41702 -1.05677,0.77717 -1.91923,1.08046 -1.08047,0.39806 -2.28413,0.59709 -3.611,0.59709 -1.9145,0 -3.53992,-0.64922 -4.87627,-1.94766 -1.488,-1.43113 -2.232,-3.3551 -2.232,-5.77192 0,-2.51157 0.76296,-4.52558 2.28887,-6.04202 1.36478,-1.3553 2.98072,-2.03295 4.84783,-2.03297 2.17038,2e-5 3.87163,0.61133 5.10374,1.83394 1.19417,1.17524 1.79127,2.73432 1.79128,4.67724 -10e-6,0.5971 -0.0711,1.1468 -0.21325,1.64911 M 367.79373,822.4 c -1.20367,10e-6 -2.21304,0.3886 -3.02812,1.16576 -0.77717,0.73927 -1.21789,1.6586 -1.32214,2.758 l 8.43041,0 c -2e-5,-1.08992 -0.34121,-1.99978 -1.02359,-2.72957 -0.74875,-0.79611 -1.7676,-1.19418 -3.05656,-1.19419"
           style="font-size:29.11545372px;font-variant:normal;font-stretch:normal;text-align:center;text-anchor:middle;fill:#eeeeec;font-family:Trebuchet MS;-inkscape-font-specification:Trebuchet MS"
           id="path3224" />
        <path
           d="m 385.66391,823.01131 c -0.58763,-0.40753 -1.17998,-0.6113 -1.77707,-0.61131 -0.95725,10e-6 -1.79603,0.44072 -2.51632,1.32214 -0.71083,0.88143 -1.06625,1.94293 -1.06624,3.1845 l 0,8.72895 -2.70114,0 0,-15.2259 2.70114,0 0,2.43102 c 0.98567,-1.81022 2.44997,-2.71534 4.3929,-2.71536 0.48336,2e-5 1.17997,0.0853 2.08983,0.2559 l -1.1231,2.63006"
           style="font-size:29.11545372px;font-variant:normal;font-stretch:normal;text-align:center;text-anchor:middle;fill:#eeeeec;font-family:Trebuchet MS;-inkscape-font-specification:Trebuchet MS"
           id="path3226" />
      </g>
      <g
         id="g4560"
         transform="translate(0,-6.4701004)">
        <rect
           ry="8.0876255"
           y="713.44299"
           x="312.77576"
           height="48.525757"
           width="48.525757"
           id="rect4552"
           style="fill:none;stroke:#eeeeec;stroke-width:4.99977064;stroke-linecap:butt;stroke-linejoin:miter;stroke-miterlimit:4;stroke-opacity:1;stroke-dasharray:none;stroke-dashoffset:0" />
        <path
           transform="matrix(0.80876259,0,0,0.80876259,103.3676,684.26839)"
           d="m 275,81.573242 c 0,1.380712 -1.11929,2.5 -2.5,2.5 -1.38071,0 -2.5,-1.119288 -2.5,-2.5 0,-1.380712 1.11929,-2.5 2.5,-2.5 1.38071,0 2.5,1.119288 2.5,2.5 z"
           sodipodi:ry="2.5"
           sodipodi:rx="2.5"
           sodipodi:cy="81.573242"
           sodipodi:cx="272.5"
           id="path4554"
           style="fill:none;stroke:#eeeeec;stroke-width:6.18200016;stroke-linecap:butt;stroke-linejoin:miter;stroke-miterlimit:4;stroke-opacity:1;stroke-dasharray:none;stroke-dashoffset:0"
           sodipodi:type="arc" />
        <path
           sodipodi:type="arc"
           style="fill:none;stroke:#eeeeec;stroke-width:6.18200016;stroke-linecap:butt;stroke-linejoin:miter;stroke-miterlimit:4;stroke-opacity:1;stroke-dasharray:none;stroke-dashoffset:0"
           id="path4556"
           sodipodi:cx="272.5"
           sodipodi:cy="81.573242"
           sodipodi:rx="2.5"
           sodipodi:ry="2.5"
           d="m 275,81.573242 c 0,1.380712 -1.11929,2.5 -2.5,2.5 -1.38071,0 -2.5,-1.119288 -2.5,-2.5 0,-1.380712 1.11929,-2.5 2.5,-2.5 1.38071,0 2.5,1.119288 2.5,2.5 z"
           transform="matrix(0.80876259,0,0,0.80876259,116.30779,671.3282)" />
        <path
           transform="matrix(0.80876259,0,0,0.80876259,129.24798,658.38801)"
           d="m 275,81.573242 c 0,1.380712 -1.11929,2.5 -2.5,2.5 -1.38071,0 -2.5,-1.119288 -2.5,-2.5 0,-1.380712 1.11929,-2.5 2.5,-2.5 1.38071,0 2.5,1.119288 2.5,2.5 z"
           sodipodi:ry="2.5"
           sodipodi:rx="2.5"
           sodipodi:cy="81.573242"
           sodipodi:cx="272.5"
           id="path4558"
           style="fill:none;stroke:#eeeeec;stroke-width:6.18200016;stroke-linecap:butt;stroke-linejoin:miter;stroke-miterlimit:4;stroke-opacity:1;stroke-dasharray:none;stroke-dashoffset:0"
           sodipodi:type="arc" />
      </g>
    </g>
    <g
       transform="matrix(1.2364568,0,0,1.2364568,-868.392,-278.1104)"
       id="g4423">
      <path
         sodipodi:type="arc"
         style="fill:#555753;fill-opacity:1;stroke:#f57900;stroke-width:5.12058449;stroke-linecap:round;stroke-linejoin:round;stroke-miterlimit:4;stroke-opacity:1;stroke-dasharray:none"
         id="path4425"
         sodipodi:cx="320"
         sodipodi:cy="772.36218"
         sodipodi:rx="80"
         sodipodi:ry="80"
         d="m 400,772.36218 c 0,44.18278 -35.81722,80 -80,80 -44.18278,0 -80,-35.81722 -80,-80 0,-44.18278 35.81722,-80 80,-80 44.18278,0 80,35.81722 80,80 z"
         transform="matrix(1.1845756,0,0,1.1845756,809.48274,-157.98707)" />
      <path
         style="fill:none;stroke:#eeeeec;stroke-width:5;stroke-miterlimit:4;stroke-dasharray:none"
         d="m 1161.2107,695.22105 c -11.8411,0 -21.4402,9.59909 -21.4402,21.44019 0,11.84111 9.5991,21.44022 21.4402,21.44022 9.0525,0 16.7938,-5.61197 19.9382,-13.54529 l 1.502,-0.74819 8.3974,7.14674 7.1467,-10.72011 10.5415,10.72011 3.5733,-10.72011 14.2935,10.72011 10.7201,-10.72011 -10.7201,-14.29347 -46.8223,0 c -3.7067,-6.40987 -10.6334,-10.72009 -18.5703,-10.72009 z m -3.5734,10.72009 c 3.947,0 7.1467,3.1997 7.1467,7.14673 0,3.94704 -3.1997,7.14674 -7.1467,7.14674 -3.947,0 -7.1467,-3.1997 -7.1467,-7.14674 0,-3.94703 3.1997,-7.14673 7.1467,-7.14673 z"
         id="path4427"
         sodipodi:nodetypes="cssccccccccccccsssc" />
      <g
         style="font-size:11.32267666px;font-style:normal;font-weight:normal;fill:#eeeeec;fill-opacity:1;stroke:none;font-family:Bitstream Vera Sans"
         id="text4429">
        <path
           d="m 1153.38,776.50443 0,6.80971 -2.7011,0 0,-21.19684 2.7011,0 0,1.25105 c 1.0236,-1.02357 2.2604,-1.53537 3.7105,-1.53538 2.1609,10e-6 3.8432,0.67293 5.0469,2.01874 1.2036,1.34585 1.8055,3.3172 1.8055,5.91408 0,2.31256 -0.6066,4.20336 -1.8197,5.6724 -1.2132,1.45956 -2.9665,2.18934 -5.2601,2.18934 -0.6445,0 -1.3364,-0.11373 -2.0756,-0.3412 -0.7298,-0.22746 -1.199,-0.4881 -1.4075,-0.7819 m 0,-11.10311 0,8.87111 c 0.1706,0.2559 0.5308,0.50232 1.0805,0.73926 0.5497,0.22747 1.0852,0.3412 1.6064,0.3412 3.3551,0 5.0327,-1.89554 5.0327,-5.68662 0,-1.92396 -0.3981,-3.33139 -1.1942,-4.22231 -0.7961,-0.89088 -2.0709,-1.33634 -3.8242,-1.33635 -0.3792,10e-6 -0.8436,0.1327 -1.3933,0.39806 -0.5497,0.26539 -0.9856,0.56394 -1.3079,0.89565"
           style="font-size:29.11545372px;font-variant:normal;font-stretch:normal;text-align:center;text-anchor:middle;fill:#eeeeec;font-family:Trebuchet MS;-inkscape-font-specification:Trebuchet MS"
           id="path3285" />
        <path
           d="m 1169.4447,762.1173 0,9.70989 c 0,2.35047 1.0188,3.5257 3.0565,3.5257 0.8909,0 1.706,-0.2559 2.4453,-0.7677 0.7392,-0.51179 1.2273,-1.10414 1.4643,-1.77706 l 0,-10.69083 2.7011,0 0,15.2259 -2.7011,0 0,-2.10405 c -0.3033,0.5971 -0.9146,1.14681 -1.8339,1.64912 -0.9099,0.49284 -1.8008,0.73926 -2.6727,0.73926 -1.6681,0 -2.9476,-0.47862 -3.8385,-1.43587 -0.8814,-0.95724 -1.3221,-2.31729 -1.3221,-4.08014 l 0,-9.99422 2.7011,0"
           style="font-size:29.11545372px;font-variant:normal;font-stretch:normal;text-align:center;text-anchor:middle;fill:#eeeeec;font-family:Trebuchet MS;-inkscape-font-specification:Trebuchet MS"
           id="path3287" />
        <path
           d="m 1185.1113,776.24853 -0.9525,1.379 -1.3506,0 0,-21.75129 2.7012,0 0,7.36416 c 0.2559,-0.35066 0.7345,-0.6729 1.4358,-0.96672 0.7109,-0.29379 1.4075,-0.4407 2.0899,-0.44071 2.0851,10e-6 3.7721,0.72032 5.0611,2.16091 1.2984,1.44062 1.9476,3.26033 1.9476,5.45915 0,2.54002 -0.6492,4.53981 -1.9476,5.99937 -1.2985,1.45009 -3.0566,2.17513 -5.2744,2.17513 -0.7203,0 -1.4311,-0.13269 -2.1325,-0.39806 -0.6918,-0.27485 -1.2178,-0.60183 -1.578,-0.98094 m 0.3981,-10.94673 0,8.78582 c 0,0.15164 0.3364,0.4028 1.0093,0.75347 0.673,0.3412 1.1847,0.5118 1.5354,0.5118 1.8387,0 3.1561,-0.44071 3.9522,-1.32214 0.7961,-0.88142 1.1942,-2.35994 1.1942,-4.43556 0,-1.72493 -0.4644,-3.07076 -1.3932,-4.03749 -0.9288,-0.96671 -2.1799,-1.45008 -3.7532,-1.45009 -0.3317,10e-6 -0.7961,0.14218 -1.3932,0.4265 -0.5876,0.28434 -0.9715,0.54024 -1.1515,0.76769"
           style="font-size:29.11545372px;font-variant:normal;font-stretch:normal;text-align:center;text-anchor:middle;fill:#eeeeec;font-family:Trebuchet MS;-inkscape-font-specification:Trebuchet MS"
           id="path3289" />
        <path
           d="m 1199.2283,773.03559 0,-17.15935 2.7012,0 0,16.70442 c 0,0.81509 0.2322,1.45957 0.6966,1.93345 0.4739,0.46441 1.0899,0.69661 1.8481,0.69661 l 0,2.41681 c -3.4972,0 -5.2459,-1.53064 -5.2459,-4.59194"
           style="font-size:29.11545372px;font-variant:normal;font-stretch:normal;text-align:center;text-anchor:middle;fill:#eeeeec;font-family:Trebuchet MS;-inkscape-font-specification:Trebuchet MS"
           id="path3291" />
        <path
           d="m 1210.3883,756.3596 c 0.4644,2e-5 0.8577,0.16588 1.18,0.49758 0.3317,0.32226 0.4975,0.71085 0.4976,1.16576 -10e-5,0.46442 -0.1659,0.86248 -0.4976,1.19418 -0.3223,0.32226 -0.7156,0.48338 -1.18,0.48337 -0.4549,1e-5 -0.8483,-0.16111 -1.18,-0.48337 -0.3222,-0.3317 -0.4833,-0.72976 -0.4833,-1.19418 0,-0.46439 0.1611,-0.85771 0.4833,-1.17998 0.3223,-0.32222 0.7156,-0.48334 1.18,-0.48336 m -1.4785,20.9836 0,-12.95126 -2.0898,0 0,-2.27464 4.7909,0 0,15.2259 -2.7011,0"
           style="font-size:29.11545372px;font-variant:normal;font-stretch:normal;text-align:center;text-anchor:middle;fill:#eeeeec;font-family:Trebuchet MS;-inkscape-font-specification:Trebuchet MS"
           id="path3293" />
        <path
           d="m 1227.3913,763.35414 -1.3364,1.90501 c -0.2748,-0.27484 -0.7629,-0.53548 -1.4643,-0.78191 -0.6919,-0.24641 -1.3743,-0.36962 -2.0472,-0.36963 -1.469,10e-6 -2.6348,0.51655 -3.4972,1.5496 -0.8625,1.0236 -1.2937,2.43104 -1.2937,4.22231 0,1.78181 0.4407,3.14186 1.3221,4.08015 0.8814,0.92881 2.104,1.39322 3.6679,1.39322 1.2131,0 2.4357,-0.46915 3.6678,-1.40744 l 1.0663,2.27464 c -1.4501,0.9383 -3.2461,1.40744 -5.3881,1.40744 -2.0756,0 -3.7911,-0.69661 -5.1464,-2.08983 -1.3553,-1.39322 -2.0329,-3.27927 -2.0329,-5.65818 0,-2.42628 0.7013,-4.37394 2.104,-5.84299 1.4122,-1.46903 3.3409,-2.20355 5.7861,-2.20356 0.7867,10e-6 1.6397,0.16587 2.559,0.49757 0.9193,0.33174 1.597,0.67293 2.033,1.0236"
           style="font-size:29.11545372px;font-variant:normal;font-stretch:normal;text-align:center;text-anchor:middle;fill:#eeeeec;font-family:Trebuchet MS;-inkscape-font-specification:Trebuchet MS"
           id="path3295" />
        <path
           d="m 1177.8893,813.73752 -4.7767,-7.62006 -2.36,2.43102 0,5.18904 -2.7011,0 0,-21.46696 2.7011,0 0,13.32089 5.8288,-7.07984 3.1561,0 -4.8763,5.78613 5.9567,9.43978 -2.9286,0"
           style="font-size:29.11545372px;font-variant:normal;font-stretch:normal;text-align:center;text-anchor:middle;fill:#eeeeec;font-family:Trebuchet MS;-inkscape-font-specification:Trebuchet MS"
           id="path3297" />
        <path
           d="m 1195.5462,806.38757 -10.9751,0 c 0,1.78181 0.4881,3.15134 1.4643,4.10858 0.8624,0.83404 1.9713,1.25106 3.3267,1.25105 1.5448,10e-6 2.8338,-0.45018 3.8668,-1.35057 l 1.1374,1.94767 c -0.4171,0.41702 -1.0568,0.77717 -1.9193,1.08045 -1.0804,0.39807 -2.2841,0.5971 -3.611,0.5971 -1.9145,0 -3.5399,-0.64922 -4.8762,-1.94767 -1.488,-1.43112 -2.232,-3.35509 -2.232,-5.77191 0,-2.51157 0.7629,-4.52558 2.2888,-6.04202 1.3648,-1.3553 2.9808,-2.03295 4.8479,-2.03297 2.1704,2e-5 3.8716,0.61133 5.1037,1.83394 1.1942,1.17524 1.7913,2.73432 1.7913,4.67723 0,0.59711 -0.071,1.14681 -0.2133,1.64912 m -6.5538,-5.88564 c -1.2036,10e-6 -2.213,0.3886 -3.0281,1.16575 -0.7772,0.73927 -1.2179,1.65861 -1.3221,2.75801 l 8.4304,0 c 0,-1.08992 -0.3412,-1.99978 -1.0236,-2.72957 -0.7488,-0.79612 -1.7676,-1.19418 -3.0566,-1.19419"
           style="font-size:29.11545372px;font-variant:normal;font-stretch:normal;text-align:center;text-anchor:middle;fill:#eeeeec;font-family:Trebuchet MS;-inkscape-font-specification:Trebuchet MS"
           id="path3299" />
        <path
           d="m 1204.4031,816.32493 c -0.3506,0.96672 -1.0899,1.77232 -2.2177,2.41681 -1.1184,0.64447 -2.3695,0.96671 -3.7532,0.96672 l 0,-2.41681 c 1.1278,0 2.0946,-0.26538 2.9002,-0.79613 0.8056,-0.52127 1.2084,-1.16101 1.2084,-1.91923 0,-0.83403 -0.1469,-1.65385 -0.4407,-2.45946 -0.2939,-0.81508 -0.673,-1.81971 -1.1374,-3.0139 l -4.1228,-10.59132 2.7581,0 4.4782,11.77129 4.0232,-11.77129 2.758,0 -6.4543,17.81332"
           style="font-size:29.11545372px;font-variant:normal;font-stretch:normal;text-align:center;text-anchor:middle;fill:#eeeeec;font-family:Trebuchet MS;-inkscape-font-specification:Trebuchet MS"
           id="path3301" />
      </g>
    </g>
  </g>
</svg>
